<mxfile host="65bd71144e">
    <diagram id="Bcf-pvfImuQuByXATXLj" name="Flowchart">
        <mxGraphModel dx="816" dy="424" grid="1" gridSize="10" guides="1" tooltips="1" connect="1" arrows="1" fold="1" page="1" pageScale="1" pageWidth="850" pageHeight="1100" math="0" shadow="0">
            <root>
                <mxCell id="0"/>
                <mxCell id="1" parent="0"/>
                <mxCell id="MMa7VRbV-sziTij-9HUM-2" style="edgeStyle=none;html=1;entryX=1;entryY=0.75;entryDx=0;entryDy=0;exitX=0;exitY=0.75;exitDx=0;exitDy=0;" edge="1" parent="1" source="MMa7VRbV-sziTij-9HUM-3" target="MMa7VRbV-sziTij-9HUM-6">
                    <mxGeometry relative="1" as="geometry">
                        <mxPoint x="480" y="440" as="sourcePoint"/>
                    </mxGeometry>
                </mxCell>
                <mxCell id="MMa7VRbV-sziTij-9HUM-3" value="greenbone community container" style="rounded=1;whiteSpace=wrap;html=1;" vertex="1" parent="1">
                    <mxGeometry x="690" y="290" width="150" height="90" as="geometry"/>
                </mxCell>
                <mxCell id="MMa7VRbV-sziTij-9HUM-4" value="" style="edgeStyle=none;html=1;exitX=1.028;exitY=0.413;exitDx=0;exitDy=0;entryX=0.011;entryY=0.413;entryDx=0;entryDy=0;entryPerimeter=0;exitPerimeter=0;" edge="1" parent="1" source="MMa7VRbV-sziTij-9HUM-6" target="MMa7VRbV-sziTij-9HUM-3">
                    <mxGeometry relative="1" as="geometry">
                        <mxPoint x="420" y="440" as="targetPoint"/>
                    </mxGeometry>
                </mxCell>
                <mxCell id="MMa7VRbV-sziTij-9HUM-5" style="edgeStyle=none;html=1;entryX=1;entryY=0.75;entryDx=0;entryDy=0;exitX=0;exitY=0.75;exitDx=0;exitDy=0;" edge="1" parent="1" source="MMa7VRbV-sziTij-9HUM-6" target="MMa7VRbV-sziTij-9HUM-8">
                    <mxGeometry relative="1" as="geometry">
                        <mxPoint x="530" y="435" as="targetPoint"/>
                        <mxPoint x="350" y="388" as="sourcePoint"/>
                    </mxGeometry>
                </mxCell>
                <mxCell id="MMa7VRbV-sziTij-9HUM-6" value="Python API" style="rounded=1;whiteSpace=wrap;html=1;" vertex="1" parent="1">
                    <mxGeometry x="315" y="290" width="120" height="90" as="geometry"/>
                </mxCell>
                <mxCell id="MMa7VRbV-sziTij-9HUM-7" value="" style="edgeStyle=none;html=1;exitX=1;exitY=0.367;exitDx=0;exitDy=0;entryX=-0.013;entryY=0.38;entryDx=0;entryDy=0;entryPerimeter=0;exitPerimeter=0;" edge="1" parent="1" source="MMa7VRbV-sziTij-9HUM-8" target="MMa7VRbV-sziTij-9HUM-6">
                    <mxGeometry relative="1" as="geometry"/>
                </mxCell>
                <mxCell id="MMa7VRbV-sziTij-9HUM-8" value="資安平台" style="rounded=1;whiteSpace=wrap;html=1;" vertex="1" parent="1">
                    <mxGeometry x="30" y="290" width="120" height="90" as="geometry"/>
                </mxCell>
                <mxCell id="MMa7VRbV-sziTij-9HUM-9" value="(第一次執行，進入docker container內)&lt;br&gt;docker-compose run gvm-tools&lt;br&gt;&lt;br&gt;(後續在容器內透過指令溝通)&lt;br&gt;&amp;nbsp;gvm-cli --xml=&quot;command&quot;" style="text;html=1;align=center;verticalAlign=middle;resizable=0;points=[];autosize=1;strokeColor=none;fillColor=none;" vertex="1" parent="1">
                    <mxGeometry x="450" y="230" width="230" height="90" as="geometry"/>
                </mxCell>
                <mxCell id="MMa7VRbV-sziTij-9HUM-10" value="xml的回傳值" style="text;html=1;align=center;verticalAlign=middle;resizable=0;points=[];autosize=1;strokeColor=none;fillColor=none;" vertex="1" parent="1">
                    <mxGeometry x="520" y="370" width="90" height="30" as="geometry"/>
                </mxCell>
            </root>
        </mxGraphModel>
    </diagram>
</mxfile>